<?xml version="1.0" encoding="UTF-8"?>
<!-- Generator: visioncortex VTracer -->
<svg id="svg" version="1.1" xmlns="http://www.w3.org/2000/svg" viewBox="0 0 205 199" style="display: block;"><path d="M0 0 C67.65 0 135.3 0 205 0 C205 65.67 205 131.34 205 199 C137.35 199 69.7 199 0 199 C0 133.33 0 67.66 0 0 Z " transform="translate(0,0)" style="fill: #FEFEFE;"/><path d="M0 0 C4.90470548 0.78737747 6.85587024 2.02846767 10 6 C10.45642525 7.53036702 10.87100394 9.07364279 11.25 10.625 C11.84125146 12.99445254 11.84125146 12.99445254 13 15 C15.23428757 16.19104045 17.31955461 16.7367472 19.77734375 17.32421875 C23.08591106 18.33016277 24.80975873 20.41153304 27 23 C27.66 23.66 28.32 24.32 29 25 C29 26.32 29 27.64 29 29 C23.06 29.33 17.12 29.66 11 30 C10.34 32.31 9.68 34.62 9 37 C17.2063652 37.0697286 25.41260514 37.12292659 33.61919403 37.15543652 C37.43048114 37.17104525 41.2415645 37.1921949 45.05273438 37.22631836 C48.73562096 37.2590842 52.41831244 37.276889 56.10133362 37.28463173 C57.50146045 37.29014453 58.90157746 37.30090926 60.30162048 37.31719017 C68.00612092 37.40316384 73.9234498 37.05034712 81 34 C83.02975939 34.93812409 85.02660025 35.94848042 87 37 C91.78102959 37.52289583 96.60932429 37.38861704 101.4140625 37.3515625 C110.02936186 37.48688134 114.55635883 39.9959726 120.9375 45.5625 C124.35681858 49.60351287 124.12801114 53.23283314 124.14526367 58.41748047 C124.15164352 59.71918182 124.15802338 61.02088318 124.16459656 62.36203003 C124.16612541 63.78041547 124.16723928 65.19880142 124.16796875 66.6171875 C124.17118373 68.07683342 124.17454798 69.53647902 124.17805481 70.99612427 C124.18403785 74.05422716 124.18589557 77.11230183 124.18530273 80.17041016 C124.18520118 84.07983713 124.19885003 87.98908221 124.21607494 91.89846611 C124.22721978 94.91314518 124.22922118 97.92778062 124.22869301 100.94247818 C124.22986951 102.38330843 124.2342727 103.82413993 124.24202538 105.2649498 C124.25187456 107.28451936 124.2476703 109.30414248 124.24291992 111.32373047 C124.24434494 112.47082489 124.24576996 113.61791931 124.24723816 114.79977417 C123.73554491 121.42308002 121.45247988 125.33549727 117 130 C114.05964392 131.80053588 111.75736178 132.27889081 108.33276367 132.40527344 C107.40571121 132.44267639 106.47865875 132.48007935 105.52351379 132.51861572 C104.0172065 132.56354156 104.0172065 132.56354156 102.48046875 132.609375 C101.42425827 132.64722107 100.36804779 132.68506714 99.27983093 132.72406006 C91.26684675 132.98801943 83.25503066 133.08377514 75.23828125 133.140625 C74.09414764 133.15033325 72.95001404 133.1600415 71.77120972 133.17004395 C62.25940715 133.24987191 62.25940715 133.24987191 57.70288086 133.25048828 C54.21411038 133.25380483 50.7267985 133.28814163 47.23828125 133.328125 C46.18006668 133.3210553 45.12185211 133.3139856 44.03157043 133.30670166 C38.05821855 133.37854536 38.05821855 133.37854536 32.97412109 136.30639648 C31.99693115 137.63973022 31.99693115 137.63973022 31 139 C30.48993408 139.64171143 29.97986816 140.28342285 29.4543457 140.94458008 C29.03241943 141.54681396 28.61049316 142.14904785 28.17578125 142.76953125 C27.70462891 143.43017578 27.23347656 144.09082031 26.74804688 144.77148438 C25.77794594 146.15074352 24.80923097 147.53097836 23.84179688 148.91210938 C22.60658352 150.64140807 21.308208 152.32524096 20 154 C19.34 154 18.68 154 18 154 C17.505 144.1 17.505 144.1 17 134 C15.47375 133.484375 13.9475 132.96875 12.375 132.4375 C7.17245478 130.37124091 3.97667468 127.73412098 1 123 C0.01661942 120.04985826 -0.12346651 118.15744802 -0.12025452 115.08357239 C-0.12162918 114.06974991 -0.12300385 113.05592743 -0.12442017 112.01138306 C-0.12082489 110.90008026 -0.11722961 109.78877747 -0.11352539 108.64379883 C-0.11367142 107.47293228 -0.11381744 106.30206573 -0.1139679 105.09571838 C-0.11339025 101.88523724 -0.10837198 98.67479957 -0.10139394 95.4643271 C-0.09514631 92.10908843 -0.09455548 88.75384893 -0.09336853 85.39860535 C-0.09025938 79.04507247 -0.08205158 72.69155678 -0.07201904 66.33803147 C-0.06084501 59.10472827 -0.0553442 51.87142425 -0.05032361 44.63811457 C-0.03986864 29.75873347 -0.02227722 14.87936845 0 0 Z " transform="translate(43,14)" style="fill: #008ED4;"/><path d="M0 0 C0.10852923 2.87602455 0.1875515 5.74790832 0.25 8.625 C0.28351563 9.43324219 0.31703125 10.24148437 0.3515625 11.07421875 C0.44082239 16.56370226 -0.29692589 19.6708666 -4 24 C-7.68276269 26.45517512 -9.46633387 26.24259705 -13.8581543 26.22705078 C-14.55109589 26.22734283 -15.24403748 26.22763489 -15.95797729 26.22793579 C-18.24685212 26.22654319 -20.53540084 26.21098557 -22.82421875 26.1953125 C-24.41176679 26.19158211 -25.99931712 26.18873526 -27.58686829 26.18673706 C-31.76427574 26.1791026 -35.94154401 26.15945575 -40.11889648 26.1373291 C-44.38197955 26.11686663 -48.6450851 26.10773449 -52.90820312 26.09765625 C-61.27219927 26.07620965 -69.63608232 26.042076 -78 26 C-76.10751392 22.0738933 -73.75149757 18.55867809 -71.25 15 C-70.83234375 14.38382813 -70.4146875 13.76765625 -69.984375 13.1328125 C-66.51377012 8.20201411 -62.84392834 4.94797611 -57 3 C-55.35472256 2.89476729 -53.70567291 2.84414906 -52.05712891 2.82641602 C-51.05243561 2.81292618 -50.04774231 2.79943634 -49.01260376 2.78553772 C-47.38601334 2.76988014 -47.38601334 2.76988014 -45.7265625 2.75390625 C-43.43489198 2.72097014 -41.14322541 2.68775846 -38.8515625 2.65429688 C-35.23505346 2.60686644 -31.6185607 2.56243014 -28.00195312 2.52319336 C-24.51415363 2.48347278 -21.02668155 2.43192987 -17.5390625 2.37890625 C-15.91854477 2.36628502 -15.91854477 2.36628502 -14.26528931 2.35340881 C-12.74879288 2.32844582 -12.74879288 2.32844582 -11.20166016 2.30297852 C-9.87287338 2.28751732 -9.87287338 2.28751732 -8.51724243 2.27174377 C-5.57421792 1.95403556 -2.81832136 0 0 0 Z " transform="translate(160,115)" style="fill: #F9FCFD;"/><path d="M0 0 C5.01509604 1.28293155 7.55496249 3.17218054 11 7 C11.66 7.66 12.32 8.32 13 9 C13 10.32 13 11.64 13 13 C7.06 13.33 1.12 13.66 -5 14 C-5.99 17.465 -5.99 17.465 -7 21 C1.2063652 21.0697286 9.41260514 21.12292659 17.61919403 21.15543652 C21.43048114 21.17104525 25.2415645 21.1921949 29.05273438 21.22631836 C32.73562096 21.2590842 36.41831244 21.276889 40.10133362 21.28463173 C41.50146045 21.29014453 42.90157746 21.30090926 44.30162048 21.31719017 C52.00612092 21.40316384 57.9234498 21.05034712 65 18 C67.02975939 18.93812409 69.02660025 19.94848042 71 21 C75.78102959 21.52289583 80.60932429 21.38861704 85.4140625 21.3515625 C94.02936186 21.48688134 98.55635883 23.9959726 104.9375 29.5625 C108.35681858 33.60351287 108.12801114 37.23283314 108.14526367 42.41748047 C108.15164352 43.71918182 108.15802338 45.02088318 108.16459656 46.36203003 C108.16612541 47.78041547 108.16723928 49.19880142 108.16796875 50.6171875 C108.17118373 52.07683342 108.17454798 53.53647902 108.17805481 54.99612427 C108.18403785 58.05422716 108.18589557 61.11230183 108.18530273 64.17041016 C108.18520118 68.07983713 108.19885003 71.98908221 108.21607494 75.89846611 C108.22721978 78.91314518 108.22922118 81.92778062 108.22869301 84.94247818 C108.22986951 86.38330843 108.2342727 87.82413993 108.24202538 89.2649498 C108.25187456 91.28451936 108.2476703 93.30414248 108.24291992 95.32373047 C108.24434494 96.47082489 108.24576996 97.61791931 108.24723816 98.79977417 C107.73554491 105.42308002 105.45247988 109.33549727 101 114 C98.05897403 115.80107819 95.75599974 116.27892216 92.33056641 116.40527344 C91.40319672 116.44267639 90.47582703 116.48007935 89.52035522 116.51861572 C88.01367783 116.56354156 88.01367783 116.56354156 86.4765625 116.609375 C85.42014557 116.64722107 84.36372864 116.68506714 83.27529907 116.72406006 C75.2755395 116.98759463 67.27695677 117.08371486 59.2734375 117.140625 C58.13167053 117.15033325 56.98990356 117.1600415 55.8135376 117.17004395 C46.31953751 117.24987177 46.31953751 117.24987177 41.77832031 117.25048828 C38.2969566 117.25380929 34.81704813 117.28817571 31.3359375 117.328125 C30.28288422 117.3210553 29.22983093 117.3139856 28.14486694 117.30670166 C21.72161934 117.4122635 21.72161934 117.4122635 16.29150391 120.54199219 C15.53530762 121.35313477 14.77911133 122.16427734 14 123 C14 119 14 119 15.89526367 116.77441406 C20.22727803 114.29858797 23.77261693 114.49600576 28.67578125 114.609375 C29.6009404 114.61503479 30.52609955 114.62069458 31.47929382 114.62652588 C34.42422986 114.6488552 37.36793386 114.69904514 40.3125 114.75 C42.31313343 114.77006946 44.31378599 114.78831945 46.31445312 114.8046875 C51.21010764 114.84870875 56.10484518 114.91771253 61 115 C61 114.34 61 113.68 61 113 C59.37989014 113.01571045 59.37989014 113.01571045 57.72705078 113.03173828 C53.72773541 113.06788194 49.72843454 113.09087984 45.72900391 113.10986328 C43.99655735 113.11993376 42.26412784 113.13359089 40.53173828 113.15087891 C38.04455361 113.17508162 35.55759325 113.18647239 33.0703125 113.1953125 C31.90461227 113.21079636 31.90461227 113.21079636 30.71536255 113.22659302 C28.80874507 113.22699271 26.90268964 113.1223214 25 113 C24.01 112.01 24.01 112.01 23 111 C23.87839035 110.99857498 24.7567807 110.99714996 25.66178894 110.99568176 C33.94568609 110.97784159 42.22904956 110.93619818 50.51269054 110.86790943 C54.77130849 110.8336393 59.02956771 110.80852948 63.28833008 110.80444336 C67.39947109 110.80016034 71.50980288 110.77169856 75.6206913 110.72656822 C77.18789262 110.71359311 78.75519079 110.70928563 80.32243919 110.71384621 C82.52077638 110.7187527 84.71674877 110.69266466 86.91479492 110.65942383 C88.16499924 110.65276199 89.41520355 110.64610016 90.70329285 110.63923645 C94.87294159 109.83073532 96.34437452 108.2370854 99 105 C100.65497356 101.69005287 100.10084335 98.00877 100.0625 94.375 C100.05798828 93.57320313 100.05347656 92.77140625 100.04882812 91.9453125 C100.03703168 89.96350994 100.01909605 87.98174567 100 86 C99.28130234 86.32440567 98.56260468 86.64881134 97.8221283 86.98304749 C94.94393839 88.02020177 92.88644209 88.25641571 89.84594727 88.27124023 C88.84463272 88.28142685 87.84331818 88.29161346 86.81166077 88.30210876 C85.20525978 88.30531883 85.20525978 88.30531883 83.56640625 88.30859375 C81.28580469 88.33374915 79.00520579 88.35914725 76.72460938 88.38476562 C73.13892277 88.4135219 69.55328235 88.4375482 65.9675293 88.45629883 C62.50024857 88.47796487 59.03350193 88.51740013 55.56640625 88.55859375 C54.49749649 88.55870956 53.42858673 88.55882538 52.32728577 88.5589447 C45.43891816 88.65041851 40.96066282 89.49482376 35.5625 94.0625 C32.01376014 98.13056764 29.01378679 102.52708877 26 107 C25.4140625 105.09765625 25.4140625 105.09765625 25 103 C26.375 101.4375 26.375 101.4375 28 100 C28.495 98.515 28.495 98.515 29 97 C29.66 97 30.32 97 31 97 C31.495 95.02 31.495 95.02 32 93 C33.98 92.505 33.98 92.505 36 92 C36 91.01 36 90.02 36 89 C39.17535063 87.13803744 41.51430772 86.7460496 45.17651367 86.72875977 C46.72413643 86.71347984 46.72413643 86.71347984 48.30302429 86.69789124 C49.41345596 86.69575119 50.52388763 86.69361115 51.66796875 86.69140625 C54.02929925 86.66623718 56.39062731 86.64083929 58.75195312 86.61523438 C62.46687134 86.58655059 66.18174717 86.56252916 69.89672852 86.54370117 C73.48736926 86.5219513 77.07750464 86.4824941 80.66796875 86.44140625 C81.76827927 86.44129044 82.86858978 86.44117462 84.00224304 86.4410553 C90.53443355 86.35787568 95.95513365 85.522885 102 83 C102.66 84.65 103.32 86.3 104 88 C104.88716709 84.93194186 105.14894958 82.1451382 105.20532227 78.95605469 C105.22526749 77.95531921 105.24521271 76.95458374 105.26576233 75.92352295 C105.28247482 74.85047913 105.29918732 73.7774353 105.31640625 72.671875 C105.3475779 71.01566132 105.3475779 71.01566132 105.37937927 69.32598877 C105.44473646 65.80072217 105.50369564 62.27538141 105.5625 58.75 C105.60569836 56.35936735 105.64931307 53.96874218 105.69335938 51.578125 C105.80040372 45.71882827 105.90219585 39.85945786 106 34 C105.34 34 104.68 34 104 34 C103.566875 33.236875 103.13375 32.47375 102.6875 31.6875 C100.221239 27.759751 97.31694787 26.43898262 93 25 C91.0568474 24.80641491 89.10908824 24.65755439 87.16015625 24.53515625 C86.01482422 24.45716797 84.86949219 24.37917969 83.68945312 24.29882812 C81.27562482 24.14154583 78.86155762 23.98788716 76.44726562 23.83789062 C75.30064453 23.75861328 74.15402344 23.67933594 72.97265625 23.59765625 C71.92343994 23.53070557 70.87422363 23.46375488 69.79321289 23.39477539 C67.0935438 23.0132209 65.32836195 22.3778675 63 21 C63 21.66 63 22.32 63 23 C59.60526639 24.02239885 56.47073211 24.14832818 52.93383789 24.18945312 C51.70899185 24.20617065 50.48414581 24.22288818 49.22218323 24.2401123 C47.90233932 24.25368774 46.58249542 24.26726318 45.22265625 24.28125 C43.85028877 24.29930232 42.47792844 24.31790597 41.10557556 24.33703613 C36.75794275 24.3965938 32.4102383 24.44880782 28.0625 24.5 C23.02623457 24.55935157 17.99004429 24.62174137 12.95391655 24.69187927 C10.94157837 24.71833687 8.92916863 24.73915702 6.91676331 24.7598877 C5.68876511 24.77660522 4.46076691 24.79332275 3.19555664 24.81054688 C1.57817345 24.82933899 1.57817345 24.82933899 -0.07188416 24.84851074 C-2.81584865 24.99047273 -5.32705097 25.38241274 -8 26 C-10.03544111 21.92911778 -10.21412435 19.38952651 -9 15 C-7.8046875 12.86328125 -7.8046875 12.86328125 -6 11 C-3.30078125 10.390625 -3.30078125 10.390625 -0.3125 10.25 C1.17830078 10.16492188 1.17830078 10.16492188 2.69921875 10.078125 C3.45847656 10.05234375 4.21773437 10.0265625 5 10 C5 8.02 5 6.04 5 4 C2.525 3.01 2.525 3.01 0 2 C0 1.34 0 0.68 0 0 Z " transform="translate(59,30)" style="fill: #1C8CC0;"/><path d="M0 0 C1.134375 0.020625 2.26875 0.04125 3.4375 0.0625 C3.4375 0.7225 3.4375 1.3825 3.4375 2.0625 C1.7875 1.7325 0.1375 1.4025 -1.5625 1.0625 C-1.4552277 16.62224907 -1.34246034 32.18194942 -1.22316074 47.74161053 C-1.1678952 54.9663146 -1.11442424 62.19102361 -1.06518555 69.41577148 C-1.02226193 75.71324534 -0.97596348 82.01068382 -0.92562145 88.30810291 C-0.89908629 91.64217135 -0.87473842 94.97623245 -0.85342598 98.31033897 C-0.82934113 102.03335835 -0.79929182 105.7562848 -0.76782227 109.47924805 C-0.7620668 110.58336029 -0.75631134 111.68747253 -0.75038147 112.82504272 C-0.74059265 113.84161453 -0.73080383 114.85818634 -0.72071838 115.90556335 C-0.71426583 116.78587565 -0.70781328 117.66618795 -0.7011652 118.57317638 C-0.55759072 121.15063161 -0.1286808 123.54681233 0.4375 126.0625 C-0.2225 126.0625 -0.8825 126.0625 -1.5625 126.0625 C-3.1514072 122.53887303 -3.81772857 119.77008307 -3.84770203 115.91229248 C-3.86661499 114.38960251 -3.86661499 114.38960251 -3.88591003 112.83615112 C-3.88964127 111.73360992 -3.8933725 110.63106873 -3.8972168 109.49511719 C-3.90886871 108.32556488 -3.92052063 107.15601257 -3.93252563 105.95101929 C-3.96849943 102.08715242 -3.99037078 98.22334823 -4.01171875 94.359375 C-4.03296655 91.67847853 -4.05488505 88.99759514 -4.07759094 86.31671143 C-4.12360247 80.70140833 -4.16202018 75.08609385 -4.19555664 69.47070312 C-4.23443034 62.97161663 -4.28371226 56.47267515 -4.33888692 49.97370791 C-4.39184268 43.72401299 -4.43905251 37.47428938 -4.48307228 31.22452545 C-4.5021827 28.56264584 -4.52254851 25.90077494 -4.54416466 23.23891449 C-4.57317127 19.53005614 -4.59556467 15.82121901 -4.6159668 12.11230469 C-4.62577072 11.00166656 -4.63557465 9.89102844 -4.64567566 8.74673462 C-4.64982483 7.74288727 -4.653974 6.73903992 -4.6582489 5.70477295 C-4.66679665 4.38851488 -4.66679665 4.38851488 -4.67551708 3.04566574 C-4.4742637 -0.48582527 -3.6659943 0.06431569 0 0 Z " transform="translate(44.5625,12.9375)" style="fill: #BBEAF9;"/><path d="M0 0 C4.90470548 0.78737747 6.85587024 2.02846767 10 6 C10.93002684 8.34702053 11.66659781 10.6725465 12.32421875 13.109375 C12.82613625 15.20128328 12.82613625 15.20128328 15 16 C14.34 16.33 13.68 16.66 13 17 C11 16 11 16 10.3671875 14.15234375 C10.20476563 13.42144531 10.04234375 12.69054687 9.875 11.9375 C9.70742188 11.20402344 9.53984375 10.47054688 9.3671875 9.71484375 C9.24601562 9.14894531 9.12484375 8.58304688 9 8 C7.68 8.33 6.36 8.66 5 9 C5 7.02 5 5.04 5 3 C3.68 3 2.36 3 1 3 C1.03720774 18.00376755 1.09712878 33.00731731 1.18390274 48.01088047 C1.22366941 54.97771643 1.25607384 61.94443982 1.27099609 68.91137695 C1.2854188 75.63534672 1.32055691 82.35891728 1.36830902 89.08274651 C1.38314201 91.647521 1.39104211 94.2123453 1.39188385 96.77716255 C1.39424934 100.37078135 1.421298 103.9634327 1.45410156 107.55688477 C1.4490712 108.6164035 1.44404083 109.67592224 1.43885803 110.76754761 C1.52728139 117.03197256 2.25890414 120.9054775 6 126 C6.66 126.33 7.32 126.66 8 127 C8 127.66 8 128.32 8 129 C9.051875 129.185625 9.051875 129.185625 10.125 129.375 C13.13961064 130.03035014 16.0732911 131.02443037 19 132 C19 138.27 19 144.54 19 151 C19.66 151 20.32 151 21 151 C22.07525194 148.34771188 23.09456151 145.71631546 24 143 C24.99 143 25.98 143 27 143 C25.25731793 146.96064107 22.85325271 150.74436549 20 154 C19.34 154 18.68 154 18 154 C17.505 144.1 17.505 144.1 17 134 C15.47375 133.484375 13.9475 132.96875 12.375 132.4375 C7.17245478 130.37124091 3.97667468 127.73412098 1 123 C0.01661942 120.04985826 -0.12346651 118.15744802 -0.12025452 115.08357239 C-0.12162918 114.06974991 -0.12300385 113.05592743 -0.12442017 112.01138306 C-0.12082489 110.90008026 -0.11722961 109.78877747 -0.11352539 108.64379883 C-0.11367142 107.47293228 -0.11381744 106.30206573 -0.1139679 105.09571838 C-0.11339025 101.88523724 -0.10837198 98.67479957 -0.10139394 95.4643271 C-0.09514631 92.10908843 -0.09455548 88.75384893 -0.09336853 85.39860535 C-0.09025938 79.04507247 -0.08205158 72.69155678 -0.07201904 66.33803147 C-0.06084501 59.10472827 -0.0553442 51.87142425 -0.05032361 44.63811457 C-0.03986864 29.75873347 -0.02227722 14.87936845 0 0 Z " transform="translate(43,14)" style="fill: #1E84BA;"/><path d="M0 0 C3.42403332 1.31133191 5.47954852 2.37787775 7.9375 5.125 C8.67510047 10.1960032 7.88492046 13.01966437 4.9375 17.125 C4.215625 18.218125 3.49375 19.31125 2.75 20.4375 C2.151875 21.324375 1.55375 22.21125 0.9375 23.125 C-7.4625 14.95833333 -7.4625 14.95833333 -9.1875 9.6875 C-9.05584237 5.93525753 -8.85812337 5.29258838 -6.5 2.625 C-4.04312502 0.49798323 -3.36439151 0.1373221 0 0 Z " transform="translate(123.0625,20.875)" style="fill: #0957A1;"/><path d="M0 0 C-0.66 0.99 -1.32 1.98 -2 3 C-1.01 3.495 -1.01 3.495 0 4 C-11.55 4 -23.1 4 -35 4 C-35 3.34 -35 2.68 -35 2 C-36.62010986 2.01571045 -36.62010986 2.01571045 -38.27294922 2.03173828 C-42.27226459 2.06788194 -46.27156546 2.09087984 -50.27099609 2.10986328 C-52.00344265 2.11993376 -53.73587216 2.13359089 -55.46826172 2.15087891 C-57.95544639 2.17508162 -60.44240675 2.18647239 -62.9296875 2.1953125 C-63.70682098 2.20563507 -64.48395447 2.21595764 -65.28463745 2.22659302 C-67.19125493 2.22699271 -69.09731036 2.1223214 -71 2 C-71.66 1.34 -72.32 0.68 -73 0 C-63.77738043 -0.15368759 -54.55469383 -0.30186924 -45.33187294 -0.4429636 C-41.04964977 -0.50864904 -36.76747457 -0.57625231 -32.48535156 -0.64819336 C-28.35518776 -0.71751163 -24.22497401 -0.78185116 -20.09467697 -0.84269524 C-18.51654606 -0.86682655 -16.93844184 -0.89277148 -15.36037064 -0.92053413 C-13.15516586 -0.95902419 -10.94995549 -0.99114551 -8.74462891 -1.02172852 C-7.48776276 -1.04171402 -6.23089661 -1.06169952 -4.9359436 -1.08229065 C-2 -1 -2 -1 0 0 Z " transform="translate(155,141)" style="fill: #1687BC;"/><path d="M0 0 C0.33 0 0.66 0 1 0 C1.10852923 2.87602455 1.1875515 5.74790832 1.25 8.625 C1.28351563 9.43324219 1.31703125 10.24148437 1.3515625 11.07421875 C1.44082239 16.56370226 0.70307411 19.6708666 -3 24 C-6.68276269 26.45517512 -8.46633387 26.24259705 -12.8581543 26.22705078 C-13.55109589 26.22734283 -14.24403748 26.22763489 -14.95797729 26.22793579 C-17.24685212 26.22654319 -19.53540084 26.21098557 -21.82421875 26.1953125 C-23.41176679 26.19158211 -24.99931712 26.18873526 -26.58686829 26.18673706 C-30.76427574 26.1791026 -34.94154401 26.15945575 -39.11889648 26.1373291 C-43.38197955 26.11686663 -47.6450851 26.10773449 -51.90820312 26.09765625 C-60.27219927 26.07620965 -68.63608232 26.042076 -77 26 C-75.38880357 22.67883647 -73.51553868 19.76261 -71.375 16.75 C-70.74335937 15.85796875 -70.11171875 14.9659375 -69.4609375 14.046875 C-68.73777344 13.03367188 -68.73777344 13.03367188 -68 12 C-67.67 12.66 -67.34 13.32 -67 14 C-67.52400391 14.70576172 -67.52400391 14.70576172 -68.05859375 15.42578125 C-68.51363281 16.04839844 -68.96867187 16.67101562 -69.4375 17.3125 C-70.11619141 18.23482422 -70.11619141 18.23482422 -70.80859375 19.17578125 C-72.17336308 21.09677101 -72.17336308 21.09677101 -73 24 C-38.845 23.505 -38.845 23.505 -4 23 C-3.34 21.35 -2.68 19.7 -2 18 C-1.505 17.505 -1.505 17.505 -1 17 C-0.76298761 14.14122091 -0.57780818 11.30116703 -0.4375 8.4375 C-0.37272461 7.22803711 -0.37272461 7.22803711 -0.30664062 5.99414062 C-0.20024738 3.99631195 -0.09959112 1.9981793 0 0 Z " transform="translate(159,115)" style="fill: #E3FFFF;"/><path d="M0 0 C0 0.66 0 1.32 0 2 C-24.75 3.485 -24.75 3.485 -50 5 C-50 4.34 -50 3.68 -50 3 C-51.65 3.33 -53.3 3.66 -55 4 C-55.33 4.99 -55.66 5.98 -56 7 C-59.26202163 8.30480865 -62.57956185 9.21066812 -66 10 C-64.49364535 5.78220697 -61.75987578 4.2252326 -58 2 C-55.07460107 1.02486702 -53.09315234 0.84814375 -50.04125977 0.79467773 C-49.03333878 0.77473251 -48.02541779 0.75478729 -46.98695374 0.73423767 C-45.89942307 0.71752518 -44.8118924 0.70081268 -43.69140625 0.68359375 C-42.5731395 0.66281265 -41.45487274 0.64203156 -40.30271912 0.62062073 C-36.72270928 0.55517776 -33.14262435 0.49630861 -29.5625 0.4375 C-27.15298718 0.39430253 -24.74348181 0.35068784 -22.33398438 0.30664062 C-5.28626651 0 -5.28626651 0 0 0 Z " transform="translate(158,117)" style="fill: #CEF2FA;"/><path d="M0 0 C0.66 0 1.32 0 2 0 C0.79540446 3.3728675 -1.05501312 5.22226937 -4.05743408 7.14074707 C-8.04665104 8.90529278 -12.35163849 8.67698212 -16.6484375 8.734375 C-18.21952774 8.77760895 -18.21952774 8.77760895 -19.82235718 8.82171631 C-23.21495789 8.906371 -26.60660867 8.95852508 -30 9 C-31.12619751 9.01393799 -32.25239502 9.02787598 -33.41271973 9.04223633 C-36.85064031 9.0803167 -40.28855214 9.11183674 -43.7265625 9.140625 C-44.8684906 9.15049438 -46.0104187 9.16036377 -47.18695068 9.17053223 C-48.33181946 9.17999878 -49.47668823 9.18946533 -50.65625 9.19921875 C-51.8009375 9.20872559 -52.945625 9.21823242 -54.125 9.22802734 C-56.49052513 9.24287788 -58.85610797 9.25016713 -61.22167969 9.25048828 C-64.7030434 9.25380929 -68.18295187 9.28817571 -71.6640625 9.328125 C-72.71711578 9.3210553 -73.77016907 9.3139856 -74.85513306 9.30670166 C-81.27838066 9.4122635 -81.27838066 9.4122635 -86.70849609 12.54199219 C-87.46469238 13.35313477 -88.22088867 14.16427734 -89 15 C-89 11 -89 11 -86.97229004 8.78114319 C-83.37003771 6.62249544 -80.51987225 6.44449072 -76.44335938 6.50170898 C-75.69963577 6.49619019 -74.95591217 6.49067139 -74.18965149 6.48498535 C-72.58115779 6.47568722 -70.97259046 6.47554213 -69.36408997 6.48357964 C-66.81636888 6.4962297 -64.26972799 6.48490272 -61.7220459 6.46754456 C-57.23258074 6.4408593 -52.74338111 6.4352483 -48.25384521 6.43664551 C-41.06831387 6.43887511 -33.88311096 6.4247364 -26.69770813 6.38105965 C-24.19099621 6.37123 -21.68480177 6.37993348 -19.17810059 6.38975525 C-17.6376105 6.38361009 -16.09712321 6.37669803 -14.55664062 6.36889648 C-13.86246536 6.37661575 -13.1682901 6.38433502 -12.45307922 6.39228821 C-8.13197889 6.34719449 -5.42958251 5.65170321 -2 3 C-1.34 2.01 -0.68 1.02 0 0 Z " transform="translate(162,138)" style="fill: #3493BE;"/><path d="M0 0 C0 0.66 0 1.32 0 2 C-3.15279618 3.05093206 -5.33373221 3.11464145 -8.64208984 3.09765625 C-9.80114838 3.09435303 -10.96020691 3.0910498 -12.15438843 3.08764648 C-13.41054962 3.07934814 -14.66671082 3.0710498 -15.9609375 3.0625 C-17.94308247 3.05671168 -19.92522748 3.05092945 -21.90737343 3.04548645 C-26.09444073 3.03236352 -30.2814707 3.01037609 -34.46850586 2.98962402 C-37.89653257 2.97293235 -41.32453877 2.95833789 -44.75259399 2.94897461 C-47.32046297 2.94153076 -49.88832436 2.92959466 -52.45614624 2.91235352 C-67.06725425 2.46841245 -67.06725425 2.46841245 -81 6 C-79.25 2.125 -79.25 2.125 -77 1 C-75.43251456 0.88139945 -73.86028616 0.82293132 -72.28857422 0.79467773 C-70.81334793 0.7647599 -70.81334793 0.7647599 -69.30831909 0.73423767 C-68.23462067 0.71752518 -67.16092224 0.70081268 -66.0546875 0.68359375 C-64.93804718 0.66281265 -63.82140686 0.64203156 -62.67092896 0.62062073 C-60.288472 0.57725124 -57.90597149 0.53622277 -55.5234375 0.49731445 C-51.96603064 0.43899241 -48.40881758 0.37351941 -44.8515625 0.30664062 C-29.89992342 0.03692079 -14.95389133 -0.05896338 0 0 Z " transform="translate(156,146)" style="fill: #CCF4FB;"/><path d="M0 0 C-3.52761132 1.5922928 -6.29121301 2.2524062 -10.15405273 2.27124023 C-11.15536728 2.28142685 -12.15668182 2.29161346 -13.18833923 2.30210876 C-14.79474022 2.30531883 -14.79474022 2.30531883 -16.43359375 2.30859375 C-18.71419531 2.33374915 -20.99479421 2.35914725 -23.27539062 2.38476562 C-26.86107723 2.4135219 -30.44671765 2.4375482 -34.0324707 2.45629883 C-37.49975143 2.47796487 -40.96649807 2.51740013 -44.43359375 2.55859375 C-46.03695839 2.55876747 -46.03695839 2.55876747 -47.67271423 2.5589447 C-54.56108184 2.65041851 -59.03933718 3.49482376 -64.4375 8.0625 C-67.98623986 12.13056764 -70.98621321 16.52708877 -74 21 C-74.5859375 19.09765625 -74.5859375 19.09765625 -75 17 C-73.625 15.4375 -73.625 15.4375 -72 14 C-71.67 13.01 -71.34 12.02 -71 11 C-70.34 11 -69.68 11 -69 11 C-68.67 9.68 -68.34 8.36 -68 7 C-66.68 6.67 -65.36 6.34 -64 6 C-64 5.01 -64 4.02 -64 3 C-60.80288794 1.12239498 -58.41638567 0.73818082 -54.72827148 0.69702148 C-53.1515995 0.67205849 -53.1515995 0.67205849 -51.54307556 0.64659119 C-50.41382156 0.63817703 -49.28456757 0.62976288 -48.12109375 0.62109375 C-46.95747818 0.60409927 -45.79386261 0.5871048 -44.59498596 0.56959534 C-40.87587918 0.51644631 -37.15678344 0.47615999 -33.4375 0.4375 C-29.71470309 0.39357815 -25.99199284 0.34687769 -22.26930237 0.29469299 C-19.95226031 0.26273165 -17.63514175 0.23584292 -15.31797791 0.21446228 C-13.74603416 0.19422752 -13.74603416 0.19422752 -12.14233398 0.17358398 C-11.21952133 0.16407211 -10.29670868 0.15456024 -9.34593201 0.14476013 C-1.1609895 -0.36030709 -1.1609895 -0.36030709 0 0 Z " transform="translate(159,116)" style="fill: #1E86B8;"/><path d="M0 0 C0.33 0.66 0.66 1.32 1 2 C-1.31 5.63 -3.62 9.26 -6 13 C16.44 13 38.88 13 62 13 C62 13.33 62 13.66 62 14 C38.57 14 15.14 14 -9 14 C-7.31184863 10.62369726 -5.54968586 7.81066899 -3.375 4.75 C-2.74335937 3.85796875 -2.11171875 2.9659375 -1.4609375 2.046875 C-0.73777344 1.03367188 -0.73777344 1.03367188 0 0 Z " transform="translate(91,127)" style="fill: #B5F3FE;"/><path d="M0 0 C1.88051981 2.32826262 3.23701359 4.48350771 4.5625 7.1875 C5.69875811 10.09641953 5.69875811 10.09641953 8 11 C8 11.66 8 12.32 8 13 C9.051875 13.185625 9.051875 13.185625 10.125 13.375 C13.13961064 14.03035014 16.0732911 15.02443037 19 16 C19 22.27 19 28.54 19 35 C19.66 35 20.32 35 21 35 C22.07525194 32.34771188 23.09456151 29.71631546 24 27 C24.99 27 25.98 27 27 27 C25.25731793 30.96064107 22.85325271 34.74436549 20 38 C19.34 38 18.68 38 18 38 C17.505 28.1 17.505 28.1 17 18 C15.47375 17.484375 13.9475 16.96875 12.375 16.4375 C7.20315335 14.35408944 3.74520917 11.91892499 1 7 C0.2912826 4.55516278 0.10487625 2.56946809 0 0 Z " transform="translate(43,130)" style="fill: #2A87B1;"/><path d="M0 0 C1 2 1 2 0 5 C18.81 5.495 18.81 5.495 38 6 C38 6.66 38 7.32 38 8 C25.46 8 12.92 8 0 8 C-0.66 6.35 -1.32 4.7 -2 3 C-1.34 2.01 -0.68 1.02 0 0 Z " transform="translate(82,137)" style="fill: #078CCB;"/><path d="M0 0 C4.80668512 0.4471335 7.73263632 1.3482406 11 5 C11.73760047 10.0710032 10.94742046 12.89466437 8 17 C7.278125 18.093125 6.55625 19.18625 5.8125 20.3125 C5.214375 21.199375 4.61625 22.08625 4 23 C2 21.625 2 21.625 0 20 C0 19.34 0 18.68 0 18 C1.32 18 2.64 18 4 18 C4.33 17.34 4.66 16.68 5 16 C5.66 16 6.32 16 7 16 C6.67 15.01 6.34 14.02 6 13 C6.99 12.34 7.98 11.68 9 11 C8.42415568 8.61435923 7.77772405 6.33317216 7 4 C3.49705129 2.28432339 3.49705129 2.28432339 0 1 C0 0.67 0 0.34 0 0 Z " transform="translate(120,21)" style="fill: #286091;"/><path d="M0 0 C0.77403168 0.00141495 1.54806335 0.0028299 2.34555054 0.00428772 C4.82155192 0.00989222 7.29746338 0.02244542 9.7734375 0.03515625 C11.45051953 0.04017067 13.12760297 0.04473368 14.8046875 0.04882812 C18.91930556 0.0598631 23.03385628 0.07713071 27.1484375 0.09765625 C27.1484375 0.42765625 27.1484375 0.75765625 27.1484375 1.09765625 C25.64277222 1.17282471 25.64277222 1.17282471 24.10668945 1.24951172 C20.36954922 1.43838059 16.63309037 1.63864189 12.89672852 1.84228516 C11.28198223 1.92871139 9.6670692 2.01208013 8.05200195 2.09228516 C5.72556389 2.20835629 3.39995461 2.33554482 1.07421875 2.46484375 C0.35631668 2.49826874 -0.36158539 2.53169373 -1.10124207 2.56613159 C-5.05877103 2.7981779 -8.26786294 3.38065782 -11.8515625 5.09765625 C-9.21014085 -0.75120598 -5.92630498 -0.04049912 0 0 Z " transform="translate(86.8515625,146.90234375)" style="fill: #CEFDFF;"/><path d="M0 0 C0.66 0 1.32 0 2 0 C0.47481573 4.27051595 -2.08872939 5.87678598 -6 8 C-8.98034438 8.5181394 -11.88089052 8.46847415 -14.8984375 8.390625 C-15.73339752 8.38496521 -16.56835754 8.37930542 -17.42861938 8.37347412 C-20.07801266 8.35120223 -22.72602016 8.30102523 -25.375 8.25 C-27.17836579 8.22992302 -28.98175292 8.21167435 -30.78515625 8.1953125 C-35.19063269 8.15136786 -39.59508194 8.08240601 -44 8 C-44 7.67 -44 7.34 -44 7 C-42.90534424 6.98541748 -41.81068848 6.97083496 -40.68286133 6.95581055 C-36.61043095 6.89771261 -32.53854685 6.82048073 -28.46655273 6.73754883 C-26.70622645 6.70435346 -24.94579512 6.67630476 -23.18530273 6.65356445 C-20.65042475 6.6199188 -18.11650477 6.5675994 -15.58203125 6.51171875 C-14.79850784 6.50532883 -14.01498444 6.4989389 -13.2077179 6.49235535 C-8.64899051 6.37047883 -5.60659042 5.85871299 -2 3 C-1.34 2.01 -0.68 1.02 0 0 Z " transform="translate(162,138)" style="fill: #1D84B8;"/><path d="M0 0 C2.5625 0.1875 2.5625 0.1875 4.5625 2.1875 C4.1875 4.8125 4.1875 4.8125 3.5625 7.1875 C1.1875 7.8125 1.1875 7.8125 -1.4375 8.1875 C-3.4375 6.1875 -3.4375 6.1875 -3.625 3.625 C-3.37291261 0.34786389 -3.27713611 0.25208739 0 0 Z " transform="translate(122.4375,95.8125)" style="fill: #DBF6FC;"/><path d="M0 0 C5.14630766 2.3294307 10.47955781 2.15256886 16.04296875 2.2734375 C17.10837891 2.30759766 18.17378906 2.34175781 19.27148438 2.37695312 C21.88270721 2.45891976 24.49361596 2.52823637 27.10546875 2.5859375 C27.10546875 2.9159375 27.10546875 3.2459375 27.10546875 3.5859375 C22.68881587 3.61495918 18.27218752 3.63274358 13.85546875 3.6484375 C11.97408203 3.66100586 11.97408203 3.66100586 10.0546875 3.67382812 C8.24677734 3.67866211 8.24677734 3.67866211 6.40234375 3.68359375 C4.73703613 3.69144897 4.73703613 3.69144897 3.03808594 3.69946289 C0.51223192 3.60168383 -1.48103563 3.24987673 -3.89453125 2.5859375 C-5.89416153 2.54748307 -7.89504758 2.54049469 -9.89453125 2.5859375 C-8.90453125 1.9259375 -7.91453125 1.2659375 -6.89453125 0.5859375 C-6.31703125 0.1528125 -5.73953125 -0.2803125 -5.14453125 -0.7265625 C-2.89453125 -1.4140625 -2.89453125 -1.4140625 0 0 Z " transform="translate(125.89453125,49.4140625)" style="fill: #419EC9;"/><path d="M0 0 C0.33 0.99 0.66 1.98 1 3 C0.67 3.33 0.34 3.66 0 4 C-0.04092937 6.33297433 -0.04241723 8.66705225 0 11 C0.99 11 1.98 11 3 11 C3 11.66 3 12.32 3 13 C1.9275 12.62875 0.855 12.2575 -0.25 11.875 C-4.2197784 10.94871837 -4.74137387 11.02154842 -8 13 C-8.99 12.67 -9.98 12.34 -11 12 C-10.34 12 -9.68 12 -9 12 C-9 11.34 -9 10.68 -9 10 C-8.01 9.34 -7.02 8.68 -6 8 C-5.27617533 5.94074861 -5.27617533 5.94074861 -5 4 C-4.34 4 -3.68 4 -3 4 C-1.36323743 2.0399719 -1.36323743 2.0399719 0 0 Z " transform="translate(127,38)" style="fill: #D5F2FA;"/><path d="M0 0 C5.875 0.875 5.875 0.875 7 2 C7.08669432 3.4887186 7.10703494 4.981445 7.09765625 6.47265625 C7.09443359 7.37177734 7.09121094 8.27089844 7.08789062 9.19726562 C7.07951172 10.14279297 7.07113281 11.08832031 7.0625 12.0625 C7.05798828 13.01189453 7.05347656 13.96128906 7.04882812 14.93945312 C7.0370011 17.29303065 7.02052025 19.64648477 7 22 C6.34 22 5.68 22 5 22 C4.67 16.06 4.34 10.12 4 4 C3.34 3.67 2.68 3.34 2 3 C2 2.34 2 1.68 2 1 C1.34 0.67 0.68 0.34 0 0 Z " transform="translate(54,146)" style="fill: #CFF8FE;"/><path d="M0 0 C1.65 0 3.3 0 5 0 C2.90190147 2.09809853 0.8079962 4.17684561 -1.375 6.1875 C-4.76265991 9.81713562 -7.34765756 13.81640831 -10 18 C-10.5859375 16.09765625 -10.5859375 16.09765625 -11 14 C-9.625 12.4375 -9.625 12.4375 -8 11 C-7.67 10.01 -7.34 9.02 -7 8 C-6.34 8 -5.68 8 -5 8 C-4.67 6.68 -4.34 5.36 -4 4 C-2.68 3.67 -1.36 3.34 0 3 C0 2.01 0 1.02 0 0 Z " transform="translate(95,119)" style="fill: #258CBD;"/><path d="M0 0 C1.23556641 0.01740234 1.23556641 0.01740234 2.49609375 0.03515625 C3.32238281 0.04417969 4.14867188 0.05320312 5 0.0625 C5.63808594 0.07410156 6.27617188 0.08570312 6.93359375 0.09765625 C7.05859375 7.84765625 7.05859375 7.84765625 5.93359375 10.09765625 C4.65484375 10.15953125 3.37609375 10.22140625 2.05859375 10.28515625 C1.33929688 10.31996094 0.62 10.35476562 -0.12109375 10.390625 C-0.76304688 10.29394531 -1.405 10.19726562 -2.06640625 10.09765625 C-4.06640625 7.09765625 -4.06640625 7.09765625 -3.75390625 3.97265625 C-2.83597273 0.13402518 -2.83597273 0.13402518 0 0 Z M-2.06640625 2.09765625 C-2.31648355 4.55575623 -2.31648355 4.55575623 -2.06640625 7.09765625 C-1.40640625 7.75765625 -0.74640625 8.41765625 -0.06640625 9.09765625 C2.53639943 8.77724228 2.53639943 8.77724228 4.93359375 8.09765625 C5.61317978 5.70046193 5.61317978 5.70046193 5.93359375 3.09765625 C4.1009405 0.82925642 4.1009405 0.82925642 1.37109375 0.91015625 C-1.01330348 0.82762302 -1.01330348 0.82762302 -2.06640625 2.09765625 Z " transform="translate(121.06640625,94.90234375)" style="fill: #1E8FC0;"/><path d="M0 0 C2.25 -0.3125 2.25 -0.3125 5 0 C8.0434013 2.78253833 9.21475311 5.32676534 10.125 9.25 C10.41375 10.4875 10.7025 11.725 11 13 C11.66 13.33 12.32 13.66 13 14 C12.01 14.495 12.01 14.495 11 15 C9 14 9 14 8.3671875 12.15234375 C8.20476563 11.42144531 8.04234375 10.69054687 7.875 9.9375 C7.70742188 9.20402344 7.53984375 8.47054688 7.3671875 7.71484375 C7.24601562 7.14894531 7.12484375 6.58304688 7 6 C5.68 6.33 4.36 6.66 3 7 C3 5.02 3 3.04 3 1 C2.01 0.67 1.02 0.34 0 0 Z " transform="translate(45,16)" style="fill: #1E8EC3;"/><path d="M0 0 C1.88051981 2.32826262 3.23701359 4.48350771 4.5625 7.1875 C5.69875811 10.09641953 5.69875811 10.09641953 8 11 C8 11.66 8 12.32 8 13 C9.66666667 13.33333333 11.33333333 13.66666667 13 14 C14.66666667 14.33333333 16.33333333 14.66666667 18 15 C16.24609375 16.09375 16.24609375 16.09375 14 17 C8.23147965 15.62381224 4.13249078 11.84112211 1 7 C0.1875 3.125 0.1875 3.125 0 0 Z " transform="translate(43,130)" style="fill: #2C8BB4;"/><path d="M0 0 C0.70125 0.2475 1.4025 0.495 2.125 0.75 C1.135 1.245 1.135 1.245 0.125 1.75 C-0.205 2.74 -0.535 3.73 -0.875 4.75 C-4.13702163 6.05480865 -7.45456185 6.96066812 -10.875 7.75 C-9.13546285 2.87929599 -5.27555864 -0.45874423 0 0 Z " transform="translate(102.875,119.25)" style="fill: #DAF7FC;"/><path d="M0 0 C0.33 0.66 0.66 1.32 1 2 C-1.10536885 5.82064211 -3.58806854 9.36094552 -6 13 C-1.71 13 2.58 13 7 13 C7 13.33 7 13.66 7 14 C1.72 14 -3.56 14 -9 14 C-7.31184863 10.62369726 -5.54968586 7.81066899 -3.375 4.75 C-2.74335937 3.85796875 -2.11171875 2.9659375 -1.4609375 2.046875 C-0.73777344 1.03367188 -0.73777344 1.03367188 0 0 Z " transform="translate(91,127)" style="fill: #C4F8FD;"/><path d="M0 0 C2 2 2 2 2.3125 5.5 C2.209375 6.655 2.10625 7.81 2 9 C1.01 9.66 0.02 10.32 -1 11 C-1.28875 10.38125 -1.5775 9.7625 -1.875 9.125 C-2.93720042 6.86674235 -2.93720042 6.86674235 -5 5 C-3.35 3.35 -1.7 1.7 0 0 Z " transform="translate(71,146)" style="fill: #0B8DCC;"/><path d="M0 0 C0.33 0 0.66 0 1 0 C1.10852923 2.87602455 1.1875515 5.74790832 1.25 8.625 C1.30027344 9.83736328 1.30027344 9.83736328 1.3515625 11.07421875 C1.44040077 16.53777247 0.73989519 19.71809102 -3 24 C-5.75 24.875 -5.75 24.875 -8 25 C-7.67 24.34 -7.34 23.68 -7 23 C-6.01 23 -5.02 23 -4 23 C-3.690625 22.195625 -3.38125 21.39125 -3.0625 20.5625 C-2 18 -2 18 -1 17 C-0.76298761 14.14122091 -0.57780818 11.30116703 -0.4375 8.4375 C-0.37272461 7.22803711 -0.37272461 7.22803711 -0.30664062 5.99414062 C-0.20024738 3.99631195 -0.09959112 1.9981793 0 0 Z " transform="translate(159,115)" style="fill: #CFFAFE;"/><path d="M0 0 C1.57043101 0.01330874 3.14079971 0.03717648 4.7109375 0.0703125 C5.51273438 0.07933594 6.31453125 0.08835938 7.140625 0.09765625 C9.12252273 0.12125027 11.10426731 0.15712185 13.0859375 0.1953125 C13.0859375 0.5253125 13.0859375 0.8553125 13.0859375 1.1953125 C12.27769531 1.25589844 11.46945313 1.31648438 10.63671875 1.37890625 C9.03376953 1.50458984 9.03376953 1.50458984 7.3984375 1.6328125 C6.34269531 1.71402344 5.28695312 1.79523437 4.19921875 1.87890625 C1.43507453 2.15982931 -1.20351991 2.59688102 -3.9140625 3.1953125 C-3.9140625 4.8453125 -3.9140625 6.4953125 -3.9140625 8.1953125 C-4.5740625 8.1953125 -5.2340625 8.1953125 -5.9140625 8.1953125 C-6.0390625 5.3203125 -6.0390625 5.3203125 -5.9140625 2.1953125 C-3.9140625 0.1953125 -3.9140625 0.1953125 0 0 Z " transform="translate(57.9140625,42.8046875)" style="fill: #CFFAFE;"/><path d="M0 0 C1.32 0 2.64 0 4 0 C8.23259153 7.0484892 8.23259153 7.0484892 7.3125 10.8125 C6.879375 11.534375 6.44625 12.25625 6 13 C5.67 13.99 5.34 14.98 5 16 C4.01 15.67 3.02 15.34 2 15 C2.33 14.484375 2.66 13.96875 3 13.4375 C4.37498501 10.08597404 4.38467994 7.59034613 4 4 C2.14579161 1.55901182 2.14579161 1.55901182 0 0 Z " transform="translate(126,22)" style="fill: #D7F0F8;"/><path d="M0 0 C0.33 0.99 0.66 1.98 1 3 C0.45182617 2.84152588 -0.09634766 2.68305176 -0.66113281 2.51977539 C-3.28238816 1.9372438 -5.73872553 1.78793845 -8.421875 1.68359375 C-9.95908203 1.62075195 -9.95908203 1.62075195 -11.52734375 1.55664062 C-12.59082031 1.51732422 -13.65429688 1.47800781 -14.75 1.4375 C-15.82894531 1.39431641 -16.90789062 1.35113281 -18.01953125 1.30664062 C-20.67956428 1.20071011 -23.33968812 1.09863579 -26 1 C-26 0.67 -26 0.34 -26 0 C-22.22958744 -0.19670554 -18.45866237 -0.38078426 -14.6875 -0.5625 C-13.61564453 -0.61857422 -12.54378906 -0.67464844 -11.43945312 -0.73242188 C-9.89741211 -0.80493164 -9.89741211 -0.80493164 -8.32421875 -0.87890625 C-7.37635498 -0.9260376 -6.42849121 -0.97316895 -5.4519043 -1.02172852 C-3 -1 -3 -1 0 0 Z " transform="translate(156,51)" style="fill: #DAFCFE;"/><path d="M0 0 C0.65234375 1.765625 0.65234375 1.765625 1 4 C0.00390625 5.921875 0.00390625 5.921875 -1.4375 7.75 C-1.91058594 8.36359375 -2.38367188 8.9771875 -2.87109375 9.609375 C-3.24363281 10.06828125 -3.61617188 10.5271875 -4 11 C-6 9.625 -6 9.625 -8 8 C-8 7.34 -8 6.68 -8 6 C-6.68 6 -5.36 6 -4 6 C-3.67 5.34 -3.34 4.68 -3 4 C-2.34 4 -1.68 4 -1 4 C-1.33 3.01 -1.66 2.02 -2 1 C-1.34 0.67 -0.68 0.34 0 0 Z " transform="translate(128,33)" style="fill: #165490;"/><path d="M0 0 C0.33 0 0.66 0 1 0 C1 4.62 1 9.24 1 14 C1.99 14.33 2.98 14.66 4 15 C3.01 16.485 3.01 16.485 2 18 C1.34 18 0.68 18 0 18 C0 12.06 0 6.12 0 0 Z " transform="translate(62,147)" style="fill: #0E8BC7;"/><path d="M0 0 C5.28 0 10.56 0 16 0 C16 0.33 16 0.66 16 1 C14.67935547 1.07347656 14.67935547 1.07347656 13.33203125 1.1484375 C11.58986328 1.26058594 11.58986328 1.26058594 9.8125 1.375 C8.66394531 1.44460937 7.51539062 1.51421875 6.33203125 1.5859375 C3.20040883 1.97509574 0.84714191 2.6809851 -2 4 C-1.34 2.68 -0.68 1.36 0 0 Z " transform="translate(77,148)" style="fill: #DCFBFD;"/><path d="M0 0 C2.475 0.495 2.475 0.495 5 1 C3.515 1.99 3.515 1.99 2 3 C1.61588725 5.609621 1.39706803 8.0058074 1.3125 10.625 C1.27833984 11.33140625 1.24417969 12.0378125 1.20898438 12.765625 C1.12648692 14.50985688 1.06156665 16.25490395 1 18 C0.67 18 0.34 18 0 18 C0 12.06 0 6.12 0 0 Z " transform="translate(43,14)" style="fill: #2885AA;"/><path d="M0 0 C0.66 0 1.32 0 2 0 C0.48941618 4.22963468 -2.12314321 5.91246173 -6 8 C-9.375 8.25 -9.375 8.25 -12 8 C-12 7.67 -12 7.34 -12 7 C-11.07767578 6.74476563 -11.07767578 6.74476563 -10.13671875 6.484375 C-4.03454234 4.72141887 -4.03454234 4.72141887 0 0 Z " transform="translate(162,138)" style="fill: #2A8BB6;"/><path d="M0 0 C1.2065625 0.0309375 1.2065625 0.0309375 2.4375 0.0625 C1.4475 0.7225 0.4575 1.3825 -0.5625 2.0625 C-0.5625 3.3825 -0.5625 4.7025 -0.5625 6.0625 C0.4275 6.7225 1.4175 7.3825 2.4375 8.0625 C-2.4375 7.1875 -2.4375 7.1875 -3.5625 6.0625 C-3.6875 3.5625 -3.6875 3.5625 -3.5625 1.0625 C-2.5625 0.0625 -2.5625 0.0625 0 0 Z " transform="translate(122.5625,95.9375)" style="fill: #BAF5FD;"/><path d="M0 0 C6.52307692 0.61538462 6.52307692 0.61538462 8.9375 2.5625 C9.288125 3.036875 9.63875 3.51125 10 4 C9.67 4.66 9.34 5.32 9 6 C4.545 4.02 4.545 4.02 0 2 C0 1.34 0 0.68 0 0 Z " transform="translate(56,27)" style="fill: #D4F7FC;"/><path d="M0 0 C5.94 1.485 5.94 1.485 12 3 C8 5 8 5 5.859375 4.3203125 C5.16328125 3.92585937 4.4671875 3.53140625 3.75 3.125 C3.04359375 2.73570312 2.3371875 2.34640625 1.609375 1.9453125 C1.07828125 1.63335937 0.5471875 1.32140625 0 1 C0 0.67 0 0.34 0 0 Z " transform="translate(49,142)" style="fill: #2C90C1;"/><path d="M0 0 C2.6486859 3.19668988 4.93992341 6.39486597 7 10 C4.13904359 8.7175023 1.88634082 7.54656011 0 5 C-0.1875 2.3125 -0.1875 2.3125 0 0 Z " transform="translate(114,32)" style="fill: #D2EDF9;"/><path d="M0 0 C2.97 1.98 5.94 3.96 9 6 C6 7 6 7 3.375 6.375 C2.199375 5.694375 2.199375 5.694375 1 5 C0.67 3.35 0.34 1.7 0 0 Z " transform="translate(45,139)" style="fill: #C5EFF8;"/><path d="M0 0 C2.97 0.495 2.97 0.495 6 1 C6.33 2.65 6.66 4.3 7 6 C5.83054208 5.19152271 4.66449539 4.37810888 3.5 3.5625 C2.8503125 3.11003906 2.200625 2.65757813 1.53125 2.19140625 C1.0259375 1.79824219 0.520625 1.40507813 0 1 C0 0.67 0 0.34 0 0 Z " transform="translate(157,54)" style="fill: #C3EFF8;"/><path d="M0 0 C0.99 0 1.98 0 3 0 C3.66 2.64 4.32 5.28 5 8 C4.01 8.495 4.01 8.495 3 9 C2.01 6.03 1.02 3.06 0 0 Z " transform="translate(52,18)" style="fill: #CAF3FB;"/></svg>