<svg xmlns="http://www.w3.org/2000/svg" width="17" viewBox="0 0 17 17" fill="none"><g clip-path="url(#a)"><path fill="currentColor" d="M15.776.83H2.14C1.488.83.96 1.329.96 1.946v13.249c0 .617.528 1.119 1.181 1.119h13.635c.653 0 1.184-.502 1.184-1.116V1.946c0-.617-.531-1.116-1.184-1.116ZM5.706 14.025H3.333V6.633h2.375v7.392ZM4.52 5.626c-.762 0-1.378-.595-1.378-1.33 0-.735.616-1.33 1.378-1.33.76 0 1.375.595 1.375 1.33 0 .732-.615 1.33-1.375 1.33Zm10.075 8.399h-2.371v-3.593c0-.856-.016-1.96-1.235-1.96-1.234 0-1.422.935-1.422 1.9v3.653H7.197V6.633h2.275v1.01h.032c.315-.58 1.09-1.194 2.244-1.194 2.403 0 2.846 1.53 2.846 3.52v4.056Z"></path></g></svg>
<svg xmlns="http://www.w3.org/2000/svg" width="17" viewBox="0 0 17 17" fill="none"><g clip-path="url(#a)"><path fill="currentColor" fill-rule="evenodd" d="M8.977.83C4.549.83.97 4.32.97 8.636c0 3.45 2.293 6.371 5.475 7.405.397.078.543-.168.543-.375 0-.18-.013-.8-.013-1.447-2.227.465-2.691-.93-2.691-.93-.358-.905-.888-1.138-.888-1.138-.73-.478.053-.478.053-.478.808.052 1.233.801 1.233.801.715 1.19 1.869.853 2.333.646.066-.504.278-.853.504-1.046-1.777-.181-3.646-.853-3.646-3.852 0-.853.318-1.55.822-2.093-.08-.194-.358-.995.08-2.068 0 0 .676-.207 2.2.801a7.94 7.94 0 0 1 2.002-.258c.676 0 1.365.09 2.001.258 1.525-1.008 2.2-.801 2.2-.801.438 1.073.16 1.874.08 2.068.517.542.822 1.24.822 2.093 0 2.999-1.869 3.658-3.659 3.852.292.245.544.71.544 1.047 0 1.047-.013 1.887-.013 2.145 0 .207.146.453.543.375 3.182-1.034 5.475-3.955 5.475-7.405C16.983 4.319 13.39.83 8.977.83Z" clip-rule="evenodd"></path></g></svg>
<svg xmlns="http://www.w3.org/2000/svg" width="17" viewBox="0 0 17 17" fill="none"><path fill="currentColor" d="M13.158 2.058h2.248l-4.913 5.435 5.78 7.395h-4.525l-3.545-4.485-4.056 4.485h-2.25l5.255-5.813-5.545-7.017h4.64l3.205 4.1 3.706-4.1Zm-.79 11.527h1.246L5.57 3.293H4.233l8.135 10.292Z"></path></svg>